<?xml version="1.0" standalone="no"?>
<!DOCTYPE svg PUBLIC "-//W3C//DTD SVG 20010904//EN"
 "http://www.w3.org/TR/2001/REC-SVG-20010904/DTD/svg10.dtd">
<svg version="1.0" xmlns="http://www.w3.org/2000/svg"
 width="560.000000pt" height="560.000000pt" viewBox="0 0 560.000000 560.000000"
 preserveAspectRatio="xMidYMid meet">
<metadata>
Created by potrace 1.14, written by Peter Selinger 2001-2017
</metadata>
<g transform="translate(0.000000,560.000000) scale(0.100000,-0.100000)"
fill="#000000" stroke="none">
<path d="M2249 5396 c-2 -2 -23 -6 -46 -10 -97 -13 -273 -87 -361 -151 -47
-35 -150 -138 -189 -189 -35 -47 -88 -143 -119 -214 -1 -1 -10 -4 -20 -7 -126
-25 -278 -93 -363 -160 -169 -134 -274 -292 -328 -495 -18 -69 -25 -287 -12
-358 10 -50 9 -54 -23 -100 -18 -26 -38 -56 -44 -67 -6 -11 -31 -56 -55 -100
-85 -152 -165 -353 -210 -530 -29 -111 -30 -114 -54 -260 -24 -142 -31 -451
-14 -610 49 -457 232 -894 527 -1261 386 -481 980 -804 1602 -873 88 -10 499
-7 560 3 19 4 76 13 125 22 82 14 259 56 295 71 8 3 21 7 28 9 38 8 222 84
322 134 107 53 252 138 310 182 233 176 391 327 504 478 22 30 43 57 47 60 7
6 110 159 127 188 150 262 259 546 297 772 3 19 8 42 10 50 2 8 7 35 10 60 41
284 28 624 -34 898 -24 111 -98 335 -135 411 -14 30 -26 59 -26 64 0 5 -9 22
-21 38 -11 16 -18 29 -15 29 7 0 -112 208 -141 246 -23 30 -23 34 -12 105 15
98 5 264 -21 359 -45 161 -115 277 -239 400 -118 116 -266 198 -422 231 -44
10 -48 13 -64 57 -10 26 -26 59 -36 74 -11 14 -19 29 -19 33 0 12 -108 141
-156 185 -222 206 -516 274 -844 195 -8 -2 -16 -4 -17 -5 -2 -2 -6 -3 -10 -5
-13 -3 -44 -16 -106 -43 l-57 -25 -68 32 c-111 50 -212 73 -353 77 -69 2 -127
2 -130 0z"/>
</g>
</svg>
